<mxfile host="app.diagrams.net" modified="2023-08-20T14:47:34.524Z" agent="Mozilla/5.0 (X11; Linux x86_64) AppleWebKit/537.36 (KHTML, like Gecko) Chrome/116.0.0.0 Safari/537.36" etag="Qq8utvnoYEp8Bpvyij28" version="21.6.8" type="device">
  <diagram name="Page-1" id="MNRsU4UJ1333ZlrJ2uZn">
    <mxGraphModel dx="2494" dy="745" grid="1" gridSize="10" guides="1" tooltips="1" connect="1" arrows="1" fold="1" page="1" pageScale="1" pageWidth="850" pageHeight="1100" math="0" shadow="0">
      <root>
        <mxCell id="0" />
        <mxCell id="1" parent="0" />
        <mxCell id="bBBaqb7qmby4DbbmbdrR-10" style="edgeStyle=orthogonalEdgeStyle;rounded=0;orthogonalLoop=1;jettySize=auto;html=1;exitX=0.5;exitY=1;exitDx=0;exitDy=0;exitPerimeter=0;entryX=0.5;entryY=0;entryDx=0;entryDy=0;entryPerimeter=0;" edge="1" parent="1" source="bBBaqb7qmby4DbbmbdrR-1" target="bBBaqb7qmby4DbbmbdrR-2">
          <mxGeometry relative="1" as="geometry" />
        </mxCell>
        <mxCell id="bBBaqb7qmby4DbbmbdrR-1" value="Wallet_service" style="sketch=0;html=1;dashed=0;whitespace=wrap;fillColor=#2875E2;strokeColor=#ffffff;points=[[0.005,0.63,0],[0.1,0.2,0],[0.9,0.2,0],[0.5,0,0],[0.995,0.63,0],[0.72,0.99,0],[0.5,1,0],[0.28,0.99,0]];verticalLabelPosition=bottom;align=center;verticalAlign=top;shape=mxgraph.kubernetes.icon;prIcon=api" vertex="1" parent="1">
          <mxGeometry x="80" y="120" width="110" height="140" as="geometry" />
        </mxCell>
        <mxCell id="bBBaqb7qmby4DbbmbdrR-11" style="edgeStyle=orthogonalEdgeStyle;rounded=0;orthogonalLoop=1;jettySize=auto;html=1;exitX=0.995;exitY=0.63;exitDx=0;exitDy=0;exitPerimeter=0;entryX=0.005;entryY=0.63;entryDx=0;entryDy=0;entryPerimeter=0;" edge="1" parent="1" source="bBBaqb7qmby4DbbmbdrR-2" target="bBBaqb7qmby4DbbmbdrR-3">
          <mxGeometry relative="1" as="geometry" />
        </mxCell>
        <mxCell id="bBBaqb7qmby4DbbmbdrR-2" value="Customer_service" style="sketch=0;html=1;dashed=0;whitespace=wrap;fillColor=#2875E2;strokeColor=#ffffff;points=[[0.005,0.63,0],[0.1,0.2,0],[0.9,0.2,0],[0.5,0,0],[0.995,0.63,0],[0.72,0.99,0],[0.5,1,0],[0.28,0.99,0]];verticalLabelPosition=bottom;align=center;verticalAlign=top;shape=mxgraph.kubernetes.icon;prIcon=api" vertex="1" parent="1">
          <mxGeometry x="80" y="450" width="110" height="140" as="geometry" />
        </mxCell>
        <mxCell id="bBBaqb7qmby4DbbmbdrR-12" style="edgeStyle=orthogonalEdgeStyle;rounded=0;orthogonalLoop=1;jettySize=auto;html=1;exitX=0.995;exitY=0.63;exitDx=0;exitDy=0;exitPerimeter=0;entryX=0.005;entryY=0.63;entryDx=0;entryDy=0;entryPerimeter=0;" edge="1" parent="1" source="bBBaqb7qmby4DbbmbdrR-3" target="bBBaqb7qmby4DbbmbdrR-4">
          <mxGeometry relative="1" as="geometry" />
        </mxCell>
        <mxCell id="bBBaqb7qmby4DbbmbdrR-3" value="Transfer_service" style="sketch=0;html=1;dashed=0;whitespace=wrap;fillColor=#2875E2;strokeColor=#ffffff;points=[[0.005,0.63,0],[0.1,0.2,0],[0.9,0.2,0],[0.5,0,0],[0.995,0.63,0],[0.72,0.99,0],[0.5,1,0],[0.28,0.99,0]];verticalLabelPosition=bottom;align=center;verticalAlign=top;shape=mxgraph.kubernetes.icon;prIcon=api" vertex="1" parent="1">
          <mxGeometry x="510" y="450" width="110" height="140" as="geometry" />
        </mxCell>
        <mxCell id="bBBaqb7qmby4DbbmbdrR-4" value="Transaction_service" style="sketch=0;html=1;dashed=0;whitespace=wrap;fillColor=#2875E2;strokeColor=#ffffff;points=[[0.005,0.63,0],[0.1,0.2,0],[0.9,0.2,0],[0.5,0,0],[0.995,0.63,0],[0.72,0.99,0],[0.5,1,0],[0.28,0.99,0]];verticalLabelPosition=bottom;align=center;verticalAlign=top;shape=mxgraph.kubernetes.icon;prIcon=api" vertex="1" parent="1">
          <mxGeometry x="930" y="450" width="110" height="140" as="geometry" />
        </mxCell>
        <mxCell id="bBBaqb7qmby4DbbmbdrR-6" value="" style="image;html=1;image=img/lib/clip_art/computers/Database_128x128.png" vertex="1" parent="1">
          <mxGeometry x="-110" y="150" width="80" height="80" as="geometry" />
        </mxCell>
        <mxCell id="bBBaqb7qmby4DbbmbdrR-7" value="" style="image;html=1;image=img/lib/clip_art/computers/Database_128x128.png" vertex="1" parent="1">
          <mxGeometry x="-110" y="480" width="80" height="80" as="geometry" />
        </mxCell>
        <mxCell id="bBBaqb7qmby4DbbmbdrR-8" value="" style="image;html=1;image=img/lib/clip_art/computers/Database_128x128.png" vertex="1" parent="1">
          <mxGeometry x="525" y="740" width="80" height="80" as="geometry" />
        </mxCell>
        <mxCell id="bBBaqb7qmby4DbbmbdrR-9" value="" style="image;html=1;image=img/lib/clip_art/computers/Database_128x128.png" vertex="1" parent="1">
          <mxGeometry x="945" y="710" width="80" height="80" as="geometry" />
        </mxCell>
      </root>
    </mxGraphModel>
  </diagram>
</mxfile>
